HIERARCHY
ROOT Hips
{
	OFFSET 0.00 0.00 0.00
	CHANNELS 6 Xposition Yposition Zposition Xrotation Yrotation Zrotation
	JOINT Spine
	{
		OFFSET 0.00000 1.66264 2.49395
		CHANNELS 3 Xrotation Yrotation Zrotation
		JOINT Spine1
		{
			OFFSET 0.00000 0.57743 3.27475
			CHANNELS 3 Xrotation Yrotation Zrotation
			JOINT Spine2
			{
				OFFSET 0.00000 0.28982 3.31262
				CHANNELS 3 Xrotation Yrotation Zrotation
				JOINT Spine3
				{
					OFFSET 0.00000 0.00000 3.32527
					CHANNELS 3 Xrotation Yrotation Zrotation
					JOINT Neck
					{
						OFFSET 0.00000 -1.24697 8.72884
						CHANNELS 3 Xrotation Yrotation Zrotation
						JOINT Head
						{
							OFFSET 0.00000 -0.79396 4.50279
							CHANNELS 3 Xrotation Yrotation Zrotation
							End Site
							{
								OFFSET 0.00000 0.00001 5.38279
							}
						}
					}
					JOINT RightShoulder
					{
						OFFSET -1.14808 -1.91346 6.19963
						CHANNELS 3 Xrotation Yrotation Zrotation
						JOINT RightArm
						{
							OFFSET -5.70212 0.00000 0.00000
							CHANNELS 3 Xrotation Yrotation Zrotation
							JOINT RightForeArm
							{
								OFFSET -10.82477 0.00000 0.00000
								CHANNELS 3 Xrotation Yrotation Zrotation
								JOINT RightHand
								{
									OFFSET -10.02856 0.00000 0.00000
									CHANNELS 3 Xrotation Yrotation Zrotation
									JOINT RightHandEnd
									{
										OFFSET -2.68345 0.00000 0.00000
										CHANNELS 3 Xrotation Yrotation Zrotation
										End Site
										{
											OFFSET -2.68345 0.00000 0.00000
										}
									}
									JOINT RightHandThumb1
									{
										OFFSET -1.07338 -1.78897 -0.71559
										CHANNELS 3 Yrotation Xrotation Zrotation
										End Site
										{
											OFFSET -2.59202 -0.69453 0.00000
										}
									}
								}
							}
						}
					}
					JOINT LeftShoulder
					{
						OFFSET 1.14808 -1.91346 6.19963
						CHANNELS 3 Xrotation Yrotation Zrotation
						JOINT LeftArm
						{
							OFFSET 5.70212 0.00000 0.00000
							CHANNELS 3 Xrotation Yrotation Zrotation
							JOINT LeftForeArm
							{
								OFFSET 10.82477 0.00000 0.00000
								CHANNELS 3 Xrotation Yrotation Zrotation
								JOINT LeftHand
								{
									OFFSET 10.02856 0.00000 0.00000
									CHANNELS 3 Xrotation Yrotation Zrotation
									JOINT LeftHandEnd
									{
										OFFSET 2.68345 0.00000 0.00000
										CHANNELS 3 Xrotation Yrotation Zrotation
										End Site
										{
											OFFSET 2.68345 0.00000 0.00000
										}
									}
									JOINT LeftHandThumb1
									{
										OFFSET 1.07338 -1.78897 -0.71559
										CHANNELS 3 Yrotation Xrotation Zrotation
										End Site
										{
											OFFSET 2.59202 -0.69453 0.00000
										}
									}
								}
							}
						}
					}
				}
			}
		}
	}
	JOINT RightUpLeg
	{
		OFFSET -3.40597 0.00000 -0.99500
		CHANNELS 3 Xrotation Yrotation Zrotation
		JOINT RightLeg
		{
			OFFSET 0.00001 0.00000 -17.05191
			CHANNELS 3 Xrotation Yrotation Zrotation
			JOINT RightFoot
			{
				OFFSET 0.00001 0.00000 -15.93260
				CHANNELS 3 Xrotation Yrotation Zrotation
				JOINT RightToeBase
				{
					OFFSET 0.00000 -4.98016 -1.81263
					CHANNELS 3 Xrotation Yrotation Zrotation
					End Site
					{
						OFFSET 0.00000 -2.75539 -0.00000
					}
				}
			}
		}
	}
	JOINT LeftUpLeg
	{
		OFFSET 3.40597 0.00000 -0.99500
		CHANNELS 3 Xrotation Yrotation Zrotation
		JOINT LeftLeg
		{
			OFFSET 0.00001 0.00000 -17.05191
			CHANNELS 3 Xrotation Yrotation Zrotation
			JOINT LeftFoot
			{
				OFFSET 0.00001 0.00000 -15.93260
				CHANNELS 3 Xrotation Yrotation Zrotation
				JOINT LeftToeBase
				{
					OFFSET 0.00000 -4.98016 -1.81263
					CHANNELS 3 Xrotation Yrotation Zrotation
					End Site
					{
						OFFSET 0.00000 -2.75539 -0.00000
					}
				}
			}
		}
	}
}
MOTION
Frames: 10
Frame Time: 0.008342
 4.8293 -67.2977 35.2224 0.0948 1.0470 -179.9708 0.4918 -0.1101 -0.1288 1.1487 -0.4079 0.0063 1.4693 -1.1645 1.0474 0.4962 -0.3626 0.5493 -8.5778 2.4940 3.1836 -12.0407 5.9030 2.3688 -3.6497 -4.2241 12.9636 -27.6335 -39.9669 6.6074 -0.0000 0.0001 77.5741 -28.1862 25.4475 0.8091 -0.0000 -0.0000 0.0000 -0.0000 -0.0000 0.0000 -1.5082 3.6402 -14.4027 -11.1428 34.6573 -27.3904 -0.0000 -0.0001 -69.7516 -30.0974 -20.1222 -2.9373 0.0000 -0.0000 0.0000 0.0000 -0.0000 -0.0000 -6.5057 5.1416 -27.1349 12.4253 0.0000 0.0000 -11.7063 0.6681 -14.8153 4.2019 0.0000 0.0000 -4.6626 -1.8930 20.8016 12.6291 0.0000 0.0000 -13.9621 14.1014 25.9790 -2.3447 0.0000 -0.0000
 4.8246 -67.3107 35.2240 0.0969 1.0500 -179.9421 0.5102 -0.1269 -0.1302 1.1615 -0.4188 0.0059 1.4292 -1.1631 1.0441 0.4872 -0.3708 0.5476 -8.5499 2.5584 3.1779 -12.0661 5.8772 2.3133 -3.9251 -3.9997 13.2385 -28.5358 -39.6187 6.5043 -0.0000 0.0001 77.2613 -29.1121 25.4348 0.7517 0.0000 -0.0000 0.0000 -0.0000 0.0000 0.0000 -1.8280 3.4371 -14.6217 -11.9048 34.7164 -27.4334 -0.0000 -0.0001 -69.7838 -30.6392 -20.3915 -3.0666 0.0000 0.0000 0.0000 0.0000 0.0000 0.0000 -6.5149 5.1521 -27.1521 12.4102 0.0000 0.0000 -11.6680 0.6553 -14.8268 4.1996 0.0000 0.0000 -4.6720 -1.8802 20.8217 12.6009 0.0000 0.0000 -13.9121 14.1065 25.9321 -2.3514 0.0000 -0.0000
 4.8187 -67.3237 35.2253 0.0920 1.0702 -179.9212 0.5212 -0.1337 -0.1288 1.1729 -0.4295 0.0078 1.3916 -1.1558 1.0437 0.4782 -0.3794 0.5453 -8.5162 2.6218 3.1742 -12.0863 5.8539 2.2591 -4.1858 -3.7699 13.4997 -29.3751 -39.2952 6.4305 -0.0000 0.0001 76.9124 -30.0397 25.3756 0.6953 0.0000 -0.0000 -0.0000 -0.0000 0.0000 0.0000 -2.1294 3.2329 -14.8260 -12.6310 34.8098 -27.4944 -0.0000 -0.0001 -69.8026 -31.1713 -20.6427 -3.1759 0.0000 0.0000 0.0000 0.0000 0.0000 0.0000 -6.5436 5.1859 -27.1545 12.4180 0.0000 0.0000 -11.6415 0.6497 -14.8419 4.1962 0.0000 0.0000 -4.6852 -1.8466 20.8448 12.5666 0.0000 0.0000 -13.8597 14.1133 25.8928 -2.3553 0.0000 -0.0000
 4.8138 -67.3361 35.2265 0.0912 1.0813 -179.8995 0.5335 -0.1465 -0.1296 1.1857 -0.4409 0.0066 1.3558 -1.1516 1.0454 0.4666 -0.3891 0.5487 -8.4696 2.6863 3.1677 -12.1039 5.8324 2.2065 -4.4331 -3.5459 13.7428 -30.1380 -38.9851 6.3942 -0.0000 0.0001 76.5335 -30.9459 25.2768 0.6342 -0.0000 -0.0000 0.0000 0.0000 -0.0000 0.0000 -2.4182 3.0458 -15.0242 -13.3090 34.9153 -27.5681 -0.0000 -0.0001 -69.8170 -31.6972 -20.8732 -3.2519 -0.0000 -0.0000 0.0000 -0.0000 -0.0000 0.0000 -6.5663 5.2072 -27.1471 12.4239 0.0000 0.0000 -11.6136 0.6415 -14.8701 4.1926 0.0000 0.0000 -4.6978 -1.8269 20.8755 12.5438 0.0000 0.0000 -13.8112 14.1176 25.8431 -2.3589 0.0000 -0.0000
 4.8084 -67.3481 35.2276 0.0881 1.1028 -179.8829 0.5426 -0.1535 -0.1279 1.1959 -0.4506 0.0076 1.3225 -1.1453 1.0482 0.4566 -0.3986 0.5484 -8.4177 2.7475 3.1627 -12.1149 5.8149 2.1580 -4.6675 -3.3217 13.9694 -30.8286 -38.7014 6.3926 -0.0000 0.0001 76.1287 -31.8053 25.1398 0.5714 0.0000 0.0000 0.0000 -0.0000 0.0000 0.0000 -2.6767 2.8519 -15.2070 -13.9627 35.0595 -27.6498 -0.0000 -0.0001 -69.8321 -32.2137 -21.0755 -3.2923 -0.0000 0.0000 -0.0000 0.0000 -0.0000 -0.0000 -6.5997 5.2426 -27.1278 12.4466 0.0000 0.0000 -11.5942 0.6379 -14.9031 4.1879 0.0000 0.0000 -4.7118 -1.7955 20.9066 12.5208 0.0000 0.0000 -13.7625 14.1224 25.7996 -2.3630 0.0000 -0.0000
 4.8038 -67.3595 35.2286 0.0906 1.1162 -179.8658 0.5531 -0.1651 -0.1279 1.2083 -0.4617 0.0070 1.2907 -1.1428 1.0492 0.4436 -0.4076 0.5516 -8.3514 2.8081 3.1554 -12.1237 5.7997 2.1145 -4.8914 -3.1071 14.1793 -31.4357 -38.4338 6.4277 -0.0000 0.0001 75.7050 -32.5968 24.9709 0.5015 -0.0000 0.0000 0.0000 0.0000 -0.0000 0.0000 -2.9238 2.6796 -15.3805 -14.5609 35.2101 -27.7404 -0.0000 -0.0001 -69.8537 -32.7257 -21.2503 -3.2908 -0.0000 0.0000 -0.0000 -0.0000 0.0000 0.0000 -6.6261 5.2675 -27.1020 12.4687 0.0000 0.0000 -11.5740 0.6322 -14.9451 4.1826 0.0000 0.0000 -4.7248 -1.7763 20.9396 12.5113 0.0000 0.0000 -13.7189 14.1244 25.7520 -2.3691 0.0000 -0.0000
 4.7988 -67.3704 35.2293 0.0935 1.1375 -179.8527 0.5626 -0.1722 -0.1269 1.2178 -0.4708 0.0076 1.2616 -1.1403 1.0485 0.4321 -0.4160 0.5522 -8.2776 2.8649 3.1494 -12.1262 5.7876 2.0783 -5.1047 -2.8977 14.3731 -31.9624 -38.1922 6.4995 -0.0000 0.0001 75.2646 -33.3153 24.7746 0.4357 0.0000 0.0000 -0.0000 0.0000 -0.0000 0.0000 -3.1397 2.5035 -15.5367 -15.1287 35.3939 -27.8366 -0.0000 -0.0001 -69.8842 -33.2265 -21.3953 -3.2507 -0.0000 0.0000 -0.0000 -0.0000 0.0000 0.0000 -6.6588 5.3033 -27.0648 12.5048 0.0000 0.0000 -11.5608 0.6312 -14.9928 4.1755 0.0000 0.0000 -4.7388 -1.7482 20.9655 12.5059 0.0000 0.0000 -13.6779 14.1261 25.7165 -2.3778 0.0000 -0.0000
 4.7941 -67.3807 35.2299 0.1002 1.1568 -179.8403 0.5724 -0.1800 -0.1254 1.2279 -0.4813 0.0072 1.2331 -1.1379 1.0426 0.4202 -0.4261 0.5541 -8.1905 2.9218 3.1437 -12.1246 5.7761 2.0487 -5.3108 -2.6985 14.5528 -32.4051 -37.9711 6.6023 -0.0000 0.0001 74.8158 -33.9445 24.5526 0.3582 -0.0000 -0.0000 0.0000 -0.0000 0.0000 0.0000 -3.3406 2.3458 -15.6794 -15.6389 35.5853 -27.9407 -0.0000 -0.0001 -69.9253 -33.7221 -21.5183 -3.1739 0.0000 -0.0000 -0.0000 0.0000 0.0000 0.0000 -6.6891 5.3366 -27.0196 12.5454 0.0000 0.0000 -11.5496 0.6313 -15.0485 4.1672 0.0000 0.0000 -4.7538 -1.7242 20.9849 12.5127 0.0000 0.0000 -13.6421 14.1257 25.6873 -2.3903 0.0000 -0.0000
 4.7898 -67.3903 35.2303 0.1121 1.1721 -179.8279 0.5816 -0.1909 -0.1279 1.2378 -0.4911 0.0062 1.2111 -1.1415 1.0346 0.4076 -0.4307 0.5544 -8.0935 2.9723 3.1384 -12.1187 5.7660 2.0299 -5.5023 -2.5043 14.7181 -32.7749 -37.7806 6.7349 -0.0000 0.0001 74.3575 -34.4957 24.3101 0.2859 -0.0000 0.0000 0.0000 0.0000 0.0000 -0.0000 -3.5191 2.1851 -15.7980 -16.1017 35.8095 -28.0567 -0.0000 -0.0001 -69.9719 -34.2021 -21.6187 -3.0673 -0.0000 0.0000 0.0000 -0.0000 -0.0000 0.0000 -6.7147 5.3652 -26.9679 12.5893 0.0000 0.0000 -11.5402 0.6316 -15.1111 4.1573 0.0000 0.0000 -4.7699 -1.7063 20.9913 12.5347 0.0000 0.0000 -13.6151 14.1222 25.6702 -2.4061 0.0000 -0.0000
 4.7845 -67.4001 35.2304 0.1204 1.1998 -179.8200 0.5863 -0.1933 -0.1267 1.2444 -0.5002 0.0049 1.1903 -1.1426 1.0199 0.3968 -0.4370 0.5553 -7.9860 3.0231 3.1350 -12.1060 5.7546 2.0188 -5.6869 -2.3176 14.8679 -33.0653 -37.6176 6.8951 -0.0000 0.0001 73.8932 -34.9778 24.0462 0.2176 -0.0000 0.0000 0.0000 0.0000 -0.0000 0.0000 -3.6708 2.0304 -15.8982 -16.5165 36.0530 -28.1824 -0.0000 -0.0001 -70.0225 -34.6782 -21.7094 -2.9460 -0.0000 -0.0000 -0.0000 0.0000 -0.0000 0.0000 -6.7537 5.4107 -26.9008 12.6517 0.0000 0.0000 -11.5404 0.6398 -15.1817 4.1456 0.0000 0.0000 -4.7930 -1.6726 20.9746 12.5615 0.0000 0.0000 -13.5939 14.1173 25.6825 -2.4243 0.0000 -0.0000
